HIERARCHY
ROOT Hips
{
	OFFSET 0.000000 0.000000 0.000000
	CHANNELS 6 Xposition Yposition Zposition Xrotation Yrotation Zrotation
	JOINT LeftUpLeg_virtual
	{
		OFFSET 0.000000 0.000000 0.000000
		CHANNELS 3 Xrotation Yrotation Zrotation
		JOINT LeftUpLeg
		{
			OFFSET 15.427100 -6.655098 0.678600
			CHANNELS 3 Xrotation Yrotation Zrotation
			JOINT LeftLeg
			{
				OFFSET 4.081073 -39.591068 13.024000
				CHANNELS 3 Xrotation Yrotation Zrotation
				JOINT LeftFoot
				{
					OFFSET -4.081074 -37.707932 -15.979700
					CHANNELS 3 Xrotation Yrotation Zrotation
					JOINT LeftToeBase
					{
						OFFSET 5.346399 -15.068900 20.645000
						CHANNELS 3 Xrotation Yrotation Zrotation
						JOINT LeftToe_End
						{
							OFFSET 2.754700 0.931300 11.300900
							CHANNELS 3 Xrotation Yrotation Zrotation
							End Site
							{
								OFFSET 0 0 0
							}
						}
					}
				}
			}
		}
	}
	JOINT RightUpLeg_virtual
	{
		OFFSET 0.000000 0.000000 0.000000
		CHANNELS 3 Xrotation Yrotation Zrotation
		JOINT RightUpLeg
		{
			OFFSET -15.569500 -6.655098 0.678600
			CHANNELS 3 Xrotation Yrotation Zrotation
			JOINT RightLeg
			{
				OFFSET -4.081825 -39.591045 13.023800
				CHANNELS 3 Xrotation Yrotation Zrotation
				JOINT RightFoot
				{
					OFFSET 4.081824 -37.707954 -15.979600
					CHANNELS 3 Xrotation Yrotation Zrotation
					JOINT RightToeBase
					{
						OFFSET -5.346400 -15.068900 20.645000
						CHANNELS 3 Xrotation Yrotation Zrotation
						JOINT RightToe_End
						{
							OFFSET -2.754700 0.931300 11.300900
							CHANNELS 3 Xrotation Yrotation Zrotation
							End Site
							{
								OFFSET 0 0 0
							}
						}
					}
				}
			}
		}
	}
	JOINT Spine_virtual
	{
		OFFSET 0.000000 0.000000 0.000000
		CHANNELS 3 Xrotation Yrotation Zrotation
		JOINT Spine
		{
			OFFSET -0.279200 12.230698 -2.892100
			CHANNELS 3 Xrotation Yrotation Zrotation
			JOINT Spine1
			{
				OFFSET -0.232667 10.192268 -1.242267
				CHANNELS 3 Xrotation Yrotation Zrotation
				JOINT Spine1_split
				{
					OFFSET -0.232667 10.192268 -1.242267
					CHANNELS 3 Xrotation Yrotation Zrotation
					JOINT Spine2
					{
						OFFSET -0.232667 10.192268 -1.242267
						CHANNELS 3 Xrotation Yrotation Zrotation
						JOINT Neck_virtual
						{
							OFFSET 0.000000 0.000000 0.000000
							CHANNELS 3 Xrotation Yrotation Zrotation
							JOINT Neck
							{
								OFFSET -0.418800 17.814194 8.416900
								CHANNELS 3 Xrotation Yrotation Zrotation
								JOINT Head
								{
									OFFSET 0.000000 7.031097 3.806800
									CHANNELS 3 Xrotation Yrotation Zrotation
									JOINT HeadTop_End
									{
										OFFSET 0.000000 24.646606 12.978600
										CHANNELS 3 Xrotation Yrotation Zrotation
										End Site
										{
											OFFSET 0 0 0
										}
									}
								}
							}
						}
						JOINT LeftShoulder_virtual
						{
							OFFSET 0.000000 0.000000 0.000000
							CHANNELS 3 Xrotation Yrotation Zrotation
							JOINT LeftShoulder
							{
								OFFSET 8.476499 7.247704 -3.868750
								CHANNELS 3 Xrotation Yrotation Zrotation
								JOINT LeftShoulder_split
								{
									OFFSET 8.476499 7.247704 -3.868750
									CHANNELS 3 Xrotation Yrotation Zrotation
									JOINT LeftArm
									{
										OFFSET 9.308998 -2.777710 0.208600
										CHANNELS 3 Xrotation Yrotation Zrotation
										JOINT LeftForeArm
										{
											OFFSET 29.972298 0.000000 0.000000
											CHANNELS 3 Xrotation Yrotation Zrotation
											JOINT LeftHand
											{
												OFFSET 26.026505 0.000000 0.000000
												CHANNELS 3 Xrotation Yrotation Zrotation
												End Site
												{
													OFFSET 0 0 0
												}
											}
										}
									}
								}
							}
						}
						JOINT RightShoulder_virtual
						{
							OFFSET 0.000000 0.000000 0.000000
							CHANNELS 3 Xrotation Yrotation Zrotation
							JOINT RightShoulder
							{
								OFFSET -7.570500 7.247704 -3.868750
								CHANNELS 3 Xrotation Yrotation Zrotation
								JOINT RightShoulder_split
								{
									OFFSET -7.570500 7.247704 -3.868750
									CHANNELS 3 Xrotation Yrotation Zrotation
									JOINT RightArm
									{
										OFFSET -9.308998 -2.777710 0.208500
										CHANNELS 3 Xrotation Yrotation Zrotation
										JOINT RightForeArm
										{
											OFFSET -29.972300 0.000000 0.000000
											CHANNELS 3 Xrotation Yrotation Zrotation
											JOINT RightHand
											{
												OFFSET -26.026505 0.000000 0.000000
												CHANNELS 3 Xrotation Yrotation Zrotation
												End Site
												{
													OFFSET 0 0 0
												}
											}
										}
									}
								}
							}
						}
					}
				}
			}
		}
	}
}
MOTION
Frames: 6
Frame Time: 0.03333333
14.383254 56.209534 -50.052689 0.000000 0.000000 0.000000 42.476380 -26.885742 12.246239 -45.714203 -11.624001 -5.733448 94.740400 -1.351892 -2.819914 8.815519 -2.939796 -9.584715 0.378025 -17.081533 -30.625035 0.000000 0.000000 0.000000 44.707529 -25.900200 12.275462 -80.091208 -20.331366 -14.564800 88.101148 -15.233164 1.130732 -32.481579 -7.494288 6.402669 -6.698958 -0.378829 0.067598 0.000000 0.000000 0.000000 41.012509 -28.249090 12.672057 37.428060 9.267894 4.187236 5.098233 2.699737 0.685423 0.337419 -0.495684 2.037056 0.000000 0.000000 0.000000 6.871333 2.388871 1.231545 -9.929075 -4.229692 0.173051 -21.243222 -17.559510 -7.189562 0.000000 0.000000 0.000000 6.088934 2.354712 0.809427 5.226699 -21.826465 -8.896099 3.443275 0.759641 -3.658640 -25.976260 -19.734508 -38.648513 1.716173 -36.642831 0.611187 0.000000 0.000000 0.000000 5.529307 1.945741 1.346294 -0.666202 28.848045 14.650361 -1.670537 2.769810 -1.462091 -49.720225 47.641194 17.337689 -1.086071 16.292836 -0.046445 0.000000 0.000000 0.000000 
14.482635 56.649925 -49.768822 0.000000 0.000000 0.000000 41.458176 -29.034123 12.848337 -47.660777 -8.672806 -2.788243 94.631608 -2.266281 -5.487859 6.131872 -2.154523 -7.144908 -17.254902 -15.708436 -18.275423 0.000000 0.000000 0.000000 43.409264 -26.926301 12.565301 -79.128821 -19.666818 -15.251835 87.807204 -14.980545 2.829750 -33.571172 -7.894059 5.645197 -5.892848 -0.210698 0.106178 0.000000 0.000000 0.000000 39.861254 -30.045978 13.168758 37.092954 9.301767 3.447529 5.336263 2.838780 0.558768 0.343687 -0.424715 2.118389 0.000000 0.000000 0.000000 7.012525 2.476927 1.022706 -8.731027 -3.308660 -0.551980 -20.851432 -16.099656 -7.663158 0.000000 0.000000 0.000000 6.324288 2.473064 0.495567 5.608066 -22.544854 -9.200728 2.633142 0.307723 -3.517234 -24.094421 -16.793229 -38.234610 1.789309 -38.285734 0.624083 0.000000 0.000000 0.000000 5.754604 2.100817 1.167280 -0.355577 28.623719 14.192760 -1.503128 2.611168 -1.618869 -47.254671 45.971889 16.989880 -1.016763 19.435886 -0.081486 0.000000 0.000000 0.000000 
14.376379 57.059769 -49.071815 0.000000 0.000000 0.000000 40.390416 -30.467879 13.268392 -51.203978 -6.962446 -0.607176 94.851691 -4.056849 -6.679834 5.267018 -2.858993 -7.447707 -40.150601 -17.758157 -4.921281 0.000000 0.000000 0.000000 42.245263 -28.352916 13.148973 -78.081309 -18.752406 -15.772590 87.649728 -14.601520 4.508686 -34.593703 -8.581847 4.700343 -5.720485 0.094212 -0.007410 0.000000 0.000000 0.000000 39.083121 -31.362200 13.555065 36.524747 9.378092 2.515964 5.570070 2.996581 0.397856 0.503714 -0.833723 2.057148 0.000000 0.000000 0.000000 7.044307 2.600716 0.787217 -7.641208 -2.411574 -1.338348 -20.383586 -14.466887 -7.944369 0.000000 0.000000 0.000000 6.532812 2.596193 0.179393 6.013077 -23.259571 -9.180298 2.061591 -0.257539 -3.340265 -22.539821 -14.066527 -37.583727 1.628485 -39.656140 0.500842 0.000000 0.000000 0.000000 5.962382 2.285851 0.983192 0.127040 28.222970 13.397491 -1.304649 2.203244 -1.778077 -45.339052 44.610725 16.870139 -0.983667 22.977537 0.021151 0.000000 0.000000 0.000000 
14.057837 57.529190 -48.022865 0.000000 0.000000 0.000000 39.269196 -31.029884 13.545013 -55.437613 -6.314919 0.645886 94.999735 -5.571698 -6.562453 4.918094 -3.699057 -8.796955 -62.299255 -21.791102 3.766196 0.000000 0.000000 0.000000 41.468268 -30.166412 14.050812 -76.731732 -17.540515 -16.132173 87.132416 -13.637075 5.763686 -35.102951 -9.385293 4.327105 -6.412893 0.478287 -0.251130 0.000000 0.000000 0.000000 38.638472 -31.944747 13.743834 35.831510 9.395554 1.474772 5.810322 3.119853 0.228447 0.727826 -1.220203 2.059861 0.000000 0.000000 0.000000 7.004190 2.709603 0.568635 -6.774921 -1.657164 -2.114418 -19.952051 -12.820024 -8.091015 0.000000 0.000000 0.000000 6.696984 2.703479 -0.100449 6.427160 -23.985799 -8.790700 1.722297 -0.786148 -3.252433 -21.430110 -11.754599 -36.565807 1.270052 -40.866975 0.305059 0.000000 0.000000 0.000000 6.140516 2.468187 0.817958 0.718327 27.586369 12.352088 -0.953252 1.661462 -1.898671 -44.217087 43.853834 17.060786 -1.049412 26.261154 0.268350 0.000000 0.000000 0.000000 
13.616199 58.244957 -46.597412 0.000000 0.000000 0.000000 38.142034 -30.732600 13.566064 -59.712382 -6.579742 0.504160 94.986409 -5.632933 -5.668816 3.481752 -3.730007 -9.512108 -77.783547 -23.307665 6.328123 0.000000 0.000000 0.000000 40.744411 -31.694629 14.899942 -74.557956 -16.183112 -16.420132 86.060377 -12.047400 6.378889 -35.133605 -10.302513 4.473264 -7.388806 0.861921 -0.516544 0.000000 0.000000 0.000000 38.350822 -31.731341 13.663649 35.216951 9.204486 0.403691 6.027031 3.151674 0.079129 0.804460 -1.500889 1.893565 0.000000 0.000000 0.000000 6.946513 2.759613 0.387667 -6.305162 -1.155005 -2.804485 -19.685082 -11.220642 -8.162973 0.000000 0.000000 0.000000 6.831781 2.769148 -0.313824 6.828865 -24.785758 -8.049515 1.545645 -1.008694 -3.217886 -20.788072 -9.971500 -35.180365 0.899114 -42.085986 0.170656 0.000000 0.000000 0.000000 6.272527 2.598483 0.700019 1.304759 26.605248 11.030176 -0.371838 1.158579 -1.911358 -44.040363 43.894924 17.753673 -1.216122 28.951697 0.596339 0.000000 0.000000 0.000000 
13.087501 59.302574 -44.888557 0.000000 0.000000 0.000000 37.013256 -29.871685 13.364364 -63.623178 -7.402545 0.228417 95.110029 -4.421916 -4.629877 0.391996 -2.362348 -9.352175 -85.340680 -20.706121 5.581443 0.000000 0.000000 0.000000 39.886894 -32.269881 15.282832 -71.173563 -14.753572 -16.650024 84.467221 -9.898191 6.426659 -35.208116 -11.324526 4.834034 -7.999670 1.156894 -0.636002 0.000000 0.000000 0.000000 38.273310 -30.922483 13.488809 34.846939 8.733363 -0.577217 6.203392 3.067687 -0.038757 0.942920 -1.539456 1.758409 0.000000 0.000000 0.000000 6.930695 2.704470 0.268083 -6.320290 -0.876169 -3.340224 -19.641618 -9.725774 -8.244598 0.000000 0.000000 0.000000 6.948828 2.766797 -0.444846 7.175378 -25.653957 -7.112614 1.470428 -0.757889 -3.278935 -20.569601 -8.875299 -33.537673 0.723134 -43.403540 0.235951 0.000000 0.000000 0.000000 6.381689 2.635293 0.636589 1.812357 25.267446 9.508265 0.320823 0.834209 -1.913132 -45.072995 44.607740 19.247299 -1.453939 31.030403 0.933377 0.000000 0.000000 0.000000 
